<svg width="32" height="32" viewBox="0 0 32 32" fill="none" xmlns="http://www.w3.org/2000/svg">
<g clip-path="url(#clip0_122_219)">
<path opacity="0.2" d="M20 16L7.29001 3.29004C7.19774 3.38015 7.12452 3.48789 7.0747 3.60685C7.02489 3.72581 6.99948 3.85357 7.00001 3.98254V28.0175C6.99948 28.1465 7.02489 28.2743 7.0747 28.3932C7.12452 28.5122 7.19774 28.6199 7.29001 28.71L20 16Z" fill="#919191"/>
<path d="M7 28.0177C7.00268 28.1927 7.05123 28.3639 7.14079 28.5142C7.23035 28.6645 7.35779 28.7887 7.51038 28.8744C7.66296 28.96 7.83535 29.0042 8.01033 29.0023C8.1853 29.0005 8.35674 28.9528 8.5075 28.864L29.4875 16.8552C29.6425 16.7726 29.7722 16.6494 29.8626 16.4988C29.953 16.3482 30.0008 16.1759 30.0008 16.0002C30.0008 15.8246 29.953 15.6522 29.8626 15.5016C29.7722 15.351 29.6425 15.2278 29.4875 15.1452L8.5075 3.13646C8.35674 3.04764 8.1853 2.99993 8.01033 2.9981C7.83535 2.99627 7.66296 3.04039 7.51038 3.12605C7.35779 3.2117 7.23035 3.3359 7.14079 3.48623C7.05123 3.63655 7.00268 3.80775 7 3.98271V28.0177Z" stroke="#919191" stroke-width="2" stroke-linecap="round" stroke-linejoin="round"/>
<path d="M7.29102 3.29102L23.9998 19.9998" stroke="#919191" stroke-width="2" stroke-linecap="round" stroke-linejoin="round"/>
<path d="M7.29102 28.7092L23.9973 12.0029" stroke="#919191" stroke-width="2" stroke-linecap="round" stroke-linejoin="round"/>
</g>
<defs>
<clipPath id="clip0_122_219">
<rect width="32" height="32" fill="white"/>
</clipPath>
</defs>
</svg>
