<svg width="32" height="32" viewBox="0 0 32 32" fill="none" xmlns="http://www.w3.org/2000/svg">
<g clip-path="url(#clip0_122_177)">
<path opacity="0.2" d="M26.9999 9.18977C25.5661 7.83227 23.1249 6.99977 20.9999 6.99977C19.1823 6.99555 17.418 7.61305 15.9999 8.74977C14.6112 7.63638 12.8896 7.02027 11.1099 6.99977C6.49985 6.93727 2.88235 10.7873 2.99985 15.3985C3.05004 17.3753 3.49184 19.3225 4.29967 21.1275C5.1075 22.9324 6.26532 24.5591 7.7061 25.9135C8.44826 26.6129 9.43006 27.0016 10.4499 26.9998H21.4124C21.9568 27.002 22.4959 26.8922 22.9961 26.6771C23.4963 26.4621 23.9469 26.1464 24.3199 25.7498C26.3011 23.6248 26.9999 21.5998 26.9999 21.5998C24.9011 20.1585 23.9999 17.741 23.9999 15.0023C23.9999 12.7148 25.4599 10.651 26.9999 9.19227V9.18977Z" fill="#919191"/>
<path d="M26.9999 9.18977C25.5661 7.83227 23.1249 6.99977 20.9999 6.99977C19.1823 6.99555 17.418 7.61305 15.9999 8.74977C14.6112 7.63638 12.8896 7.02027 11.1099 6.99977C6.49985 6.93727 2.88235 10.7873 2.99985 15.3985C3.05004 17.3753 3.49184 19.3225 4.29967 21.1275C5.1075 22.9324 6.26532 24.5591 7.7061 25.9135C8.44826 26.6129 9.43006 27.0016 10.4499 26.9998H21.4124C21.9568 27.002 22.4959 26.8922 22.9961 26.6771C23.4963 26.4621 23.9469 26.1464 24.3199 25.7498C26.3011 23.6248 26.9999 21.5998 26.9999 21.5998C24.9011 20.1585 23.9999 17.741 23.9999 15.0023C23.9999 12.7148 25.4599 10.651 26.9999 9.19227V9.18977Z" stroke="#919191" stroke-width="2" stroke-linecap="round" stroke-linejoin="round"/>
<path d="M21 1H20.875C19.9879 0.999553 19.1258 1.29403 18.4243 1.83711C17.7228 2.38018 17.2218 3.14104 17 4" stroke="#919191" stroke-width="2" stroke-linecap="round" stroke-linejoin="round"/>
</g>
<defs>
<clipPath id="clip0_122_177">
<rect width="32" height="32" fill="white"/>
</clipPath>
</defs>
</svg>
